<?xml version="1.0" encoding="UTF-8" standalone="no"?>
<svg
   xmlns:dc="http://purl.org/dc/elements/1.1/"
   xmlns:cc="http://creativecommons.org/ns#"
   xmlns:rdf="http://www.w3.org/1999/02/22-rdf-syntax-ns#"
   xmlns:svg="http://www.w3.org/2000/svg"
   xmlns="http://www.w3.org/2000/svg"
   xmlns:sodipodi="http://sodipodi.sourceforge.net/DTD/sodipodi-0.dtd"
   xmlns:inkscape="http://www.inkscape.org/namespaces/inkscape"
   inkscape:version="1.0 (4035a4fb49, 2020-05-01)"
   sodipodi:docname="5434b25d9d17889d3bc024622ece4dd0.svg"
   viewBox="0 0 800 600"
   height="600"
   width="800"
   id="svg2"
   version="1.1">
  <metadata
     id="metadata8">
    <rdf:RDF>
      <cc:Work
         rdf:about="">
        <dc:format>image/svg+xml</dc:format>
        <dc:type
           rdf:resource="http://purl.org/dc/dcmitype/StillImage" />
        <dc:title></dc:title>
      </cc:Work>
    </rdf:RDF>
  </metadata>
  <defs
     id="defs6" />
  <sodipodi:namedview
     inkscape:current-layer="g10"
     inkscape:window-maximized="1"
     inkscape:window-y="42"
     inkscape:window-x="0"
     inkscape:cy="284.16054"
     inkscape:cx="431.01078"
     inkscape:zoom="1.3983333"
     showgrid="false"
     id="namedview4"
     inkscape:window-height="1009"
     inkscape:window-width="1920"
     inkscape:pageshadow="2"
     inkscape:pageopacity="0"
     guidetolerance="10"
     gridtolerance="10"
     objecttolerance="10"
     borderopacity="1"
     bordercolor="#666666"
     pagecolor="#ffffff" />
  <g
     id="g10"
     inkscape:label="Image"
     inkscape:groupmode="layer">
    <rect
       ry="0"
       y="12.157331"
       x="20.738976"
       height="563.52802"
       width="754.4696"
       id="rect941"
       style="fill:#ffffff;fill-opacity:1;stroke:none;stroke-width:3.97;stroke-linejoin:miter;stroke-miterlimit:4;stroke-dasharray:none;stroke-dashoffset:0;stroke-opacity:1" />
    <rect
       ry="0"
       y="298.77994"
       x="393.10513"
       height="111.49858"
       width="10.737139"
       id="rect839"
       style="fill:#adb7b4;fill-opacity:1;stroke:#6e6f71;stroke-width:3.46476;stroke-linejoin:miter;stroke-miterlimit:4;stroke-dasharray:none;stroke-opacity:1" />
    <circle
       r="69.555275"
       cy="231.70442"
       cx="395.82837"
       id="path837"
       style="fill:#008066;fill-opacity:1;stroke:#6e6f71;stroke-width:5.3655;stroke-miterlimit:4;stroke-dasharray:none;stroke-opacity:1" />
    <path
       id="path841"
       d="m 125.07255,409.5207 h 544.22552 v 1.67067"
       style="fill:none;stroke:#666666;stroke-width:8.11606;stroke-linecap:butt;stroke-linejoin:miter;stroke-miterlimit:4;stroke-dasharray:97.3925, 8.11606;stroke-dashoffset:0;stroke-opacity:1" />
    <circle
       style="fill:#008066;fill-opacity:1;stroke:#ffffff;stroke-width:4.01336;stroke-miterlimit:4;stroke-dasharray:none;stroke-opacity:1"
       id="circle843"
       cx="395.82837"
       cy="231.70442"
       r="52.026928" />
    <text
       id="text847"
       y="240.1078"
       x="354.86343"
       style="font-style:normal;font-weight:normal;font-size:37.3333px;line-height:1.25;font-family:sans-serif;fill:#ffffff;fill-opacity:1;stroke:none"
       xml:space="preserve"><tspan
         style="font-style:normal;font-variant:normal;font-weight:bold;font-stretch:normal;font-size:37.3333px;font-family:sans-serif;-inkscape-font-specification:'sans-serif Bold';fill:#ffffff"
         y="240.1078"
         x="354.86343"
         id="tspan845"
         sodipodi:role="line">404</tspan></text>
    <circle
       r="8.4971085"
       cy="335.04172"
       cx="331.46603"
       id="path849"
       style="fill:#008000;fill-opacity:1;stroke:#6e6f71;stroke-width:1.7388;stroke-linejoin:miter;stroke-miterlimit:4;stroke-dasharray:none;stroke-dashoffset:0;stroke-opacity:1" />
    <circle
       style="fill:#008000;fill-opacity:1;stroke:#6e6f71;stroke-width:0.875872;stroke-linejoin:miter;stroke-miterlimit:4;stroke-dasharray:none;stroke-dashoffset:0;stroke-opacity:1"
       id="path849-3"
       cx="572.10968"
       cy="313.94516"
       r="4.2801814" />
    <circle
       r="4.2801814"
       cy="219.90463"
       cx="587.84271"
       id="circle866"
       style="fill:#008000;fill-opacity:1;stroke:#6e6f71;stroke-width:0.875872;stroke-linejoin:miter;stroke-miterlimit:4;stroke-dasharray:none;stroke-dashoffset:0;stroke-opacity:1" />
    <circle
       style="fill:#008000;fill-opacity:1;stroke:#6e6f71;stroke-width:0.875872;stroke-linejoin:miter;stroke-miterlimit:4;stroke-dasharray:none;stroke-dashoffset:0;stroke-opacity:1"
       id="circle886"
       cx="477.35403"
       cy="170.91774"
       r="4.2801814" />
    <circle
       r="4.2801814"
       cy="243.14659"
       cx="258.16452"
       id="circle888"
       style="fill:#008000;fill-opacity:1;stroke:#6e6f71;stroke-width:0.875872;stroke-linejoin:miter;stroke-miterlimit:4;stroke-dasharray:none;stroke-dashoffset:0;stroke-opacity:1" />
    <circle
       style="fill:#008000;fill-opacity:1;stroke:#6e6f71;stroke-width:0.875872;stroke-linejoin:miter;stroke-miterlimit:4;stroke-dasharray:none;stroke-dashoffset:0;stroke-opacity:1"
       id="circle890"
       cx="227.77119"
       cy="157.33014"
       r="4.2801814" />
    <circle
       r="4.2801814"
       cy="133.01547"
       cx="372.58646"
       id="circle892"
       style="fill:#008000;fill-opacity:1;stroke:#6e6f71;stroke-width:0.875872;stroke-linejoin:miter;stroke-miterlimit:4;stroke-dasharray:none;stroke-dashoffset:0;stroke-opacity:1" />
    <circle
       style="fill:#008000;fill-opacity:1;stroke:#6e6f71;stroke-width:0.875872;stroke-linejoin:miter;stroke-miterlimit:4;stroke-dasharray:none;stroke-dashoffset:0;stroke-opacity:1"
       id="circle894"
       cx="441.95474"
       cy="80.452896"
       r="4.2801814" />
    <path
       d="m 174.20961,262.32895 c -0.0445,0.0675 -7.41186,-3.06374 -7.49108,-3.04749 -0.0792,0.0163 -5.61884,5.79509 -5.68635,5.75056 -0.0675,-0.0445 3.06374,-7.41186 3.04749,-7.49109 -0.0162,-0.0792 -5.79509,-5.61884 -5.75056,-5.68635 0.0445,-0.0675 7.41186,3.06374 7.49108,3.04749 0.0792,-0.0163 5.61885,-5.79508 5.68636,-5.75055 0.0675,0.0445 -3.06374,7.41186 -3.04749,7.49108 0.0163,0.0792 5.79508,5.61884 5.75055,5.68635 z"
       inkscape:randomized="0"
       inkscape:rounded="0.01"
       inkscape:flatsided="false"
       sodipodi:arg2="1.3684747"
       sodipodi:arg1="0.58307653"
       sodipodi:r2="2.2352901"
       sodipodi:r1="9.5118723"
       sodipodi:cy="257.09177"
       sodipodi:cx="166.26936"
       sodipodi:sides="4"
       id="path896"
       style="fill:#6e6f71;fill-opacity:1;stroke:#6e6f71;stroke-width:0.70871;stroke-linejoin:miter;stroke-miterlimit:4;stroke-dasharray:none;stroke-dashoffset:0;stroke-opacity:1"
       sodipodi:type="star" />
    <path
       sodipodi:type="star"
       style="fill:#6e6f71;fill-opacity:1;stroke:#6e6f71;stroke-width:0.70871;stroke-linejoin:miter;stroke-miterlimit:4;stroke-dasharray:none;stroke-dashoffset:0;stroke-opacity:1"
       id="path898"
       sodipodi:sides="4"
       sodipodi:cx="286.41239"
       sodipodi:cy="284.98211"
       sodipodi:r1="9.5118723"
       sodipodi:r2="2.2352901"
       sodipodi:arg1="0.58307653"
       sodipodi:arg2="1.3684747"
       inkscape:flatsided="false"
       inkscape:rounded="0.01"
       inkscape:randomized="0"
       d="m 294.35264,290.2193 c -0.0445,0.0675 -7.41186,-3.06374 -7.49109,-3.04749 -0.0792,0.0163 -5.61884,5.79509 -5.68635,5.75056 -0.0675,-0.0445 3.06374,-7.41186 3.04749,-7.49108 -0.0163,-0.0792 -5.79509,-5.61885 -5.75056,-5.68636 0.0445,-0.0675 7.41186,3.06374 7.49109,3.04749 0.0792,-0.0163 5.61884,-5.79508 5.68635,-5.75055 0.0675,0.0445 -3.06374,7.41186 -3.04749,7.49108 0.0163,0.0792 5.79508,5.61884 5.75056,5.68635 z" />
    <path
       d="m 324.3884,153.27056 c -0.0445,0.0675 -7.41186,-3.06374 -7.49108,-3.04749 -0.0792,0.0162 -5.61885,5.79508 -5.68636,5.75055 -0.0675,-0.0445 3.06375,-7.41186 3.04749,-7.49108 -0.0162,-0.0792 -5.79508,-5.61885 -5.75055,-5.68636 0.0445,-0.0675 7.41186,3.06375 7.49108,3.04749 0.0792,-0.0163 5.61885,-5.79508 5.68636,-5.75055 0.0675,0.0445 -3.06374,7.41186 -3.04749,7.49108 0.0163,0.0792 5.79508,5.61885 5.75055,5.68636 z"
       inkscape:randomized="0"
       inkscape:rounded="0.01"
       inkscape:flatsided="false"
       sodipodi:arg2="1.3684747"
       sodipodi:arg1="0.58307653"
       sodipodi:r2="2.2352901"
       sodipodi:r1="9.5118723"
       sodipodi:cy="148.03337"
       sodipodi:cx="316.44814"
       sodipodi:sides="4"
       id="path900"
       style="fill:#6e6f71;fill-opacity:1;stroke:#6e6f71;stroke-width:0.70871;stroke-linejoin:miter;stroke-miterlimit:4;stroke-dasharray:none;stroke-dashoffset:0;stroke-opacity:1"
       sodipodi:type="star" />
    <path
       sodipodi:type="star"
       style="fill:#6e6f71;fill-opacity:1;stroke:#6e6f71;stroke-width:0.70871;stroke-linejoin:miter;stroke-miterlimit:4;stroke-dasharray:none;stroke-dashoffset:0;stroke-opacity:1"
       id="path902"
       sodipodi:sides="4"
       sodipodi:cx="418.71275"
       sodipodi:cy="96.543502"
       sodipodi:r1="9.5118723"
       sodipodi:r2="2.2352901"
       sodipodi:arg1="0.58307653"
       sodipodi:arg2="1.3684747"
       inkscape:flatsided="false"
       inkscape:rounded="0.01"
       inkscape:randomized="0"
       d="m 426.65299,101.78069 c -0.0445,0.0675 -7.41186,-3.063742 -7.49108,-3.047491 -0.0792,0.01625 -5.61885,5.795081 -5.68636,5.750551 -0.0675,-0.0445 3.06374,-7.411856 3.04749,-7.491079 -0.0162,-0.07922 -5.79508,-5.618845 -5.75055,-5.686355 0.0445,-0.06751 7.41186,3.063741 7.49108,3.047491 0.0792,-0.01625 5.61884,-5.795083 5.68635,-5.750555 0.0675,0.04453 -3.06374,7.41186 -3.04749,7.491082 0.0163,0.07922 5.79509,5.618846 5.75056,5.686356 z" />
    <path
       d="m 518.90567,202.61501 c -0.0445,0.0675 -7.41186,-3.06374 -7.49108,-3.04749 -0.0792,0.0162 -5.61884,5.79508 -5.68635,5.75055 -0.0675,-0.0445 3.06374,-7.41186 3.04749,-7.49108 -0.0163,-0.0792 -5.79509,-5.61884 -5.75056,-5.68635 0.0445,-0.0675 7.41186,3.06374 7.49109,3.04749 0.0792,-0.0163 5.61884,-5.79509 5.68635,-5.75056 0.0675,0.0445 -3.06374,7.41186 -3.04749,7.49108 0.0163,0.0792 5.79508,5.61885 5.75055,5.68636 z"
       inkscape:randomized="0"
       inkscape:rounded="0.01"
       inkscape:flatsided="false"
       sodipodi:arg2="1.3684747"
       sodipodi:arg1="0.58307653"
       sodipodi:r2="2.2352901"
       sodipodi:r1="9.5118723"
       sodipodi:cy="197.37783"
       sodipodi:cx="510.96542"
       sodipodi:sides="4"
       id="path904"
       style="fill:#6e6f71;fill-opacity:1;stroke:#6e6f71;stroke-width:0.70871;stroke-linejoin:miter;stroke-miterlimit:4;stroke-dasharray:none;stroke-dashoffset:0;stroke-opacity:1"
       sodipodi:type="star" />
    <path
       sodipodi:type="star"
       style="fill:#6e6f71;fill-opacity:1;stroke:#6e6f71;stroke-width:0.70871;stroke-linejoin:miter;stroke-miterlimit:4;stroke-dasharray:none;stroke-dashoffset:0;stroke-opacity:1"
       id="path906"
       sodipodi:sides="4"
       sodipodi:cx="510.96542"
       sodipodi:cy="197.37783"
       sodipodi:r1="9.5118723"
       sodipodi:r2="2.2352901"
       sodipodi:arg1="0.58307653"
       sodipodi:arg2="1.3684747"
       inkscape:flatsided="false"
       inkscape:rounded="0.01"
       inkscape:randomized="0"
       d="m 518.90567,202.61501 c -0.0445,0.0675 -7.41186,-3.06374 -7.49108,-3.04749 -0.0792,0.0162 -5.61884,5.79508 -5.68635,5.75055 -0.0675,-0.0445 3.06374,-7.41186 3.04749,-7.49108 -0.0163,-0.0792 -5.79509,-5.61884 -5.75056,-5.68635 0.0445,-0.0675 7.41186,3.06374 7.49109,3.04749 0.0792,-0.0163 5.61884,-5.79509 5.68635,-5.75056 0.0675,0.0445 -3.06374,7.41186 -3.04749,7.49108 0.0163,0.0792 5.79508,5.61885 5.75055,5.68636 z" />
    <path
       d="m 551.08686,353.50892 c -0.0445,0.0675 -7.41186,-3.06375 -7.49109,-3.0475 -0.0792,0.0163 -5.61884,5.79509 -5.68635,5.75056 -0.0675,-0.0445 3.06374,-7.41186 3.04749,-7.49108 -0.0163,-0.0792 -5.79508,-5.61885 -5.75055,-5.68636 0.0445,-0.0675 7.41186,3.06374 7.49108,3.04749 0.0792,-0.0162 5.61884,-5.79508 5.68635,-5.75055 0.0675,0.0445 -3.06374,7.41186 -3.04749,7.49108 0.0162,0.0792 5.79509,5.61885 5.75056,5.68636 z"
       inkscape:randomized="0"
       inkscape:rounded="0.01"
       inkscape:flatsided="false"
       sodipodi:arg2="1.3684747"
       sodipodi:arg1="0.58307653"
       sodipodi:r2="2.2352901"
       sodipodi:r1="9.5118723"
       sodipodi:cy="348.27174"
       sodipodi:cx="543.14659"
       sodipodi:sides="4"
       id="path908"
       style="fill:#6e6f71;fill-opacity:1;stroke:#6e6f71;stroke-width:0.70871;stroke-linejoin:miter;stroke-miterlimit:4;stroke-dasharray:none;stroke-dashoffset:0;stroke-opacity:1"
       sodipodi:type="star" />
    <path
       sodipodi:type="star"
       style="fill:#6e6f71;fill-opacity:1;stroke:#6e6f71;stroke-width:0.70871;stroke-linejoin:miter;stroke-miterlimit:4;stroke-dasharray:none;stroke-dashoffset:0;stroke-opacity:1"
       id="path910"
       sodipodi:sides="4"
       sodipodi:cx="466.98451"
       sodipodi:cy="374.01666"
       sodipodi:r1="9.5118723"
       sodipodi:r2="2.2352901"
       sodipodi:arg1="0.58307653"
       sodipodi:arg2="1.3684747"
       inkscape:flatsided="false"
       inkscape:rounded="0.01"
       inkscape:randomized="0"
       d="m 474.92475,379.25385 c -0.0445,0.0675 -7.41186,-3.06374 -7.49108,-3.04749 -0.0792,0.0162 -5.61885,5.79508 -5.68636,5.75055 -0.0675,-0.0445 3.06374,-7.41186 3.04749,-7.49108 -0.0163,-0.0792 -5.79508,-5.61884 -5.75055,-5.68635 0.0445,-0.0675 7.41186,3.06374 7.49108,3.04749 0.0792,-0.0163 5.61884,-5.79509 5.68635,-5.75056 0.0675,0.0445 -3.06374,7.41186 -3.04749,7.49108 0.0163,0.0792 5.79509,5.61885 5.75056,5.68636 z" />
    <path
       d="m 291.36353,199.23238 c -0.0445,0.0675 -7.41186,-3.06374 -7.49108,-3.04749 -0.0792,0.0163 -5.61885,5.79508 -5.68636,5.75055 -0.0675,-0.0445 3.06374,-7.41186 3.04749,-7.49108 -0.0163,-0.0792 -5.79508,-5.61884 -5.75055,-5.68635 0.0445,-0.0675 7.41186,3.06374 7.49108,3.04749 0.0792,-0.0162 5.61885,-5.79509 5.68636,-5.75056 0.0675,0.0445 -3.06375,7.41186 -3.0475,7.49109 0.0163,0.0792 5.79509,5.61884 5.75056,5.68635 z"
       inkscape:randomized="0"
       inkscape:rounded="0.01"
       inkscape:flatsided="false"
       sodipodi:arg2="1.3684747"
       sodipodi:arg1="0.58307653"
       sodipodi:r2="2.2352901"
       sodipodi:r1="9.5118723"
       sodipodi:cy="193.9952"
       sodipodi:cx="283.42328"
       sodipodi:sides="4"
       id="path912"
       style="fill:#6e6f71;fill-opacity:1;stroke:#6e6f71;stroke-width:0.70871;stroke-linejoin:miter;stroke-miterlimit:4;stroke-dasharray:none;stroke-dashoffset:0;stroke-opacity:1"
       sodipodi:type="star" />
    <path
       d="m 549.22528,134.44577 c -0.38945,0.0201 -0.2252,-0.50603 -0.0329,-0.63764 0.4901,-0.33536 1.09952,0.0948 1.27327,0.57369 0.30418,0.8383 -0.34148,1.68706 -1.14601,1.89462 -1.16322,0.30009 -2.2759,-0.58254 -2.50735,-1.70626 -0.30502,-1.48091 0.81966,-2.86211 2.25883,-3.11381 1.79465,-0.31387 3.44516,1.05394 3.71535,2.80579 0.32475,2.10565 -1.28604,4.02514 -3.34832,4.31282 -2.41451,0.33681 -4.60231,-1.51637 -4.90686,-3.8872 -0.34961,-2.72158 1.74525,-5.17688 4.42297,-5.49789 3.02715,-0.36291 5.74911,1.97286 6.0863,4.95605 0.37655,3.33138 -2.19937,6.31918 -5.48675,6.67233 -3.63442,0.39043 -6.88728,-2.42492 -7.25623,-6.01532 -0.40449,-3.93638 2.64959,-7.45356 6.54196,-7.83816 4.23737,-0.4187 8.01814,2.87345 8.41831,7.06683 0.22725,2.38139 -0.64242,4.78428 -2.31151,6.49282"
       sodipodi:t0="0"
       sodipodi:argument="-22.042662"
       sodipodi:radius="8.3475218"
       sodipodi:revolution="3.63802"
       sodipodi:expansion="0.95999998"
       sodipodi:cy="134.44577"
       sodipodi:cx="549.22528"
       id="path914"
       style="fill:#808080;fill-rule:evenodd;stroke:#666666"
       sodipodi:type="spiral" />
    <path
       sodipodi:type="spiral"
       style="fill:#808080;fill-rule:evenodd;stroke:#666666;stroke-width:0.732362"
       id="path925"
       sodipodi:cx="549.73065"
       sodipodi:cy="234.92227"
       sodipodi:expansion="0.95999998"
       sodipodi:revolution="3.63802"
       sodipodi:radius="6.1134109"
       sodipodi:argument="-22.042662"
       sodipodi:t0="0"
       d="m 549.73065,234.92227 c -0.28522,0.0147 -0.16493,-0.3706 -0.0241,-0.46698 0.35894,-0.24561 0.80525,0.0695 0.9325,0.42014 0.22277,0.61394 -0.25009,1.23555 -0.83929,1.38755 -0.8519,0.21978 -1.66678,-0.42662 -1.83629,-1.2496 -0.22339,-1.08456 0.60029,-2.0961 1.65428,-2.28043 1.31434,-0.22987 2.52311,0.77186 2.72098,2.05485 0.23784,1.5421 -0.94184,2.94787 -2.45218,3.15855 -1.76829,0.24667 -3.37055,-1.11053 -3.5936,-2.84684 -0.25604,-1.99318 1.27815,-3.79135 3.23922,-4.02645 2.21697,-0.26578 4.21043,1.44485 4.45738,3.62963 0.27577,2.43977 -1.61074,4.62793 -4.01829,4.88656 -2.66172,0.28594 -5.04399,-1.77592 -5.31419,-4.40539 -0.29624,-2.88286 1.94046,-5.45871 4.79108,-5.74038 3.10329,-0.30663 5.87219,2.10441 6.16525,5.17548 0.16643,1.74404 -0.47048,3.50383 -1.69285,4.7551" />
    <path
       d="m 490.67661,299.10623 c -0.45026,0.0232 -0.26037,-0.58503 -0.038,-0.73718 0.56661,-0.38772 1.27118,0.10963 1.47206,0.66324 0.35167,0.96918 -0.3948,1.95045 -1.32493,2.19042 -1.34483,0.34694 -2.63122,-0.67349 -2.8988,-1.97265 -0.35265,-1.71211 0.94762,-3.30895 2.61148,-3.59994 2.07484,-0.36287 3.98303,1.21848 4.29539,3.24383 0.37545,2.43439 -1.48681,4.65356 -3.87106,4.98615 -2.79146,0.3894 -5.32082,-1.75311 -5.67293,-4.49407 -0.40419,-3.14649 2.01772,-5.98511 5.1135,-6.35624 3.49976,-0.41957 6.64667,2.28086 7.0365,5.7298 0.43534,3.85148 -2.54274,7.30575 -6.34335,7.71403 -4.20183,0.45139 -7.96254,-2.8035 -8.38908,-6.95444 -0.46765,-4.55094 3.06324,-8.61722 7.5633,-9.06188 4.89891,-0.48406 9.26995,3.32207 9.73259,8.17012 0.26272,2.75318 -0.74272,5.53122 -2.67238,7.50649"
       sodipodi:t0="0"
       sodipodi:argument="-22.042662"
       sodipodi:radius="9.650753"
       sodipodi:revolution="3.63802"
       sodipodi:expansion="0.95999998"
       sodipodi:cy="299.10623"
       sodipodi:cx="490.67661"
       id="path927"
       style="fill:#808080;fill-rule:evenodd;stroke:#666666;stroke-width:1.15612"
       sodipodi:type="spiral" />
    <path
       sodipodi:type="spiral"
       style="fill:#808080;fill-rule:evenodd;stroke:#666666;stroke-width:0.563236"
       id="path929"
       sodipodi:cx="277.43137"
       sodipodi:cy="96.260071"
       sodipodi:expansion="0.95999998"
       sodipodi:revolution="3.63802"
       sodipodi:radius="4.7016349"
       sodipodi:argument="-22.042662"
       sodipodi:t0="0"
       d="m 277.43137,96.260071 c -0.21936,0.01131 -0.12685,-0.285016 -0.0185,-0.359141 0.27604,-0.188889 0.61929,0.05341 0.71716,0.32312 0.17132,0.472162 -0.19234,0.950217 -0.64548,1.067121 -0.65517,0.169025 -1.28187,-0.328107 -1.41223,-0.961028 -0.1718,-0.834104 0.46166,-1.612048 1.27225,-1.753814 1.01082,-0.176784 1.94045,0.593618 2.09262,1.580325 0.18292,1.18598 -0.72434,2.267112 -1.88589,2.429142 -1.35994,0.189704 -2.59219,-0.854078 -2.76373,-2.189414 -0.19691,-1.532898 0.98299,-2.915812 2.49119,-3.096621 1.705,-0.204404 3.23811,1.111188 3.42803,2.791434 0.21208,1.876357 -1.23877,3.559199 -3.09035,3.758106 -2.04704,0.219909 -3.87917,-1.365804 -4.08697,-3.388052 -0.22783,-2.217118 1.49234,-4.198122 3.68467,-4.414746 2.38664,-0.235824 4.51612,1.618438 4.7415,3.980303 0.128,1.341288 -0.36183,2.694686 -1.30192,3.656997" />
    <path
       sodipodi:type="spiral"
       style="fill:#808080;fill-rule:evenodd;stroke:#666666;stroke-width:1.15612"
       id="path931"
       sodipodi:cx="291.8685"
       sodipodi:cy="375.62589"
       sodipodi:expansion="0.95999998"
       sodipodi:revolution="3.63802"
       sodipodi:radius="9.650753"
       sodipodi:argument="-22.042662"
       sodipodi:t0="0"
       d="m 291.8685,375.62589 c -0.45025,0.0232 -0.26036,-0.58504 -0.038,-0.73719 0.56662,-0.38772 1.27118,0.10964 1.47206,0.66325 0.35167,0.96918 -0.39479,1.95045 -1.32493,2.19041 -1.34482,0.34695 -2.63121,-0.67348 -2.8988,-1.97264 -0.35264,-1.71212 0.94763,-3.30895 2.61149,-3.59995 2.07484,-0.36287 3.98302,1.21849 4.29539,3.24384 0.37545,2.43439 -1.48682,4.65356 -3.87107,4.98615 -2.79146,0.38939 -5.32082,-1.75312 -5.67292,-4.49408 -0.4042,-3.14648 2.01772,-5.9851 5.1135,-6.35624 3.49975,-0.41956 6.64666,2.28087 7.0365,5.72981 0.43533,3.85148 -2.54275,7.30574 -6.34336,7.71402 -4.20183,0.45139 -7.96254,-2.8035 -8.38908,-6.95444 -0.46764,-4.55094 3.06325,-8.61722 7.5633,-9.06187 4.89891,-0.48406 9.26995,3.32206 9.73259,8.17012 0.26273,2.75318 -0.74271,5.53121 -2.67238,7.50649" />
    <path
       id="path935"
       d="m 355.61594,246.97142 c 80.92633,0 79.037,-0.25265 79.037,-0.25265"
       style="fill:none;stroke:#ffffff;stroke-width:3.944;stroke-linecap:butt;stroke-linejoin:miter;stroke-miterlimit:4;stroke-dasharray:7.888, 3.944, 1.972, 3.944;stroke-dashoffset:0;stroke-opacity:1" />
    <text
       inkscape:transform-center-x="3.5756853"
       id="text939"
       y="461.26343"
       x="254.58881"
       style="font-style:normal;font-weight:normal;font-size:37.3333px;line-height:1.25;font-family:sans-serif;fill:#000000;fill-opacity:1;stroke:none"
       xml:space="preserve"><tspan
         style="font-style:normal;font-variant:normal;font-weight:bold;font-stretch:normal;font-size:37.3333px;font-family:Cantarell;-inkscape-font-specification:'Cantarell Bold';fill:#1c241c"
         y="461.26343"
         x="254.58881"
         id="tspan937"
         sodipodi:role="line">Page Not Found!!!</tspan></text>
  </g>
</svg>
