<svg id="Logos" xmlns="http://www.w3.org/2000/svg" xmlns:xlink="http://www.w3.org/1999/xlink" width="620.79" height="150" viewBox="0 0 620.79 150"><defs><style>.cls-1{fill:#253858;}.cls-2{fill:#2684ff;}.cls-3{fill:url(#linear-gradient);}.cls-4{fill:url(#linear-gradient-2);}</style><linearGradient id="linear-gradient" x1="35.24" y1="49" x2="19.59" y2="64.64" gradientUnits="userSpaceOnUse"><stop offset="0.18" stop-color="#0052cc"/><stop offset="1" stop-color="#2684ff"/></linearGradient><linearGradient id="linear-gradient-2" x1="39.38" y1="93.93" x2="54.99" y2="78.32" xlink:href="#linear-gradient"/></defs><title>jira software-logo-gradient-blue</title><path class="cls-1" d="M109.87,42.64h7.92V82.85c0,10.65-4.66,18-15.57,18a28.19,28.19,0,0,1-9.51-1.5V91.65a22.19,22.19,0,0,0,8.19,1.5c6.69,0,9-4.05,9-9.77Z"/><path class="cls-1" d="M132.23,39.56a4.94,4.94,0,0,1,5.28,5.28,5.28,5.28,0,0,1-10.56,0A4.94,4.94,0,0,1,132.23,39.56Zm-3.88,16.89h7.57v44h-7.57Z"/><path class="cls-1" d="M154.75,100.45h-7.39v-44h7.39V64.2c2.55-5.19,6.95-8.89,15.58-8.36v7.39c-9.68-1-15.58,1.94-15.58,11.26Z"/><path class="cls-1" d="M205.79,92.53c-2.81,5.81-8.09,8.8-14.87,8.8-11.7,0-17.6-9.94-17.6-22.88,0-12.4,6.16-22.88,18.48-22.88,6.42,0,11.35,2.91,14,8.63V56.45h7.57v44h-7.57Zm-12.85,1.76c6.78,0,12.85-4.31,12.85-14.08V76.69c0-9.76-5.54-14.08-12-14.08-8.53,0-12.93,5.64-12.93,15.84C180.89,89,185.11,94.29,192.94,94.29Z"/><path class="cls-1" d="M258.15,101.33c-11.17,0-16.37-2.2-20.85-4.48v-8.1c5.36,2.82,13.64,4.84,21.29,4.84,8.71,0,12-3.43,12-8.54s-3.17-7.83-14.17-10.47c-13-3.17-18.83-7.65-18.83-17.16,0-9,6.86-15.66,20.33-15.66,8.36,0,13.72,2,17.68,4.22V53.9a35.52,35.52,0,0,0-18-4.4c-7.57,0-12.06,2.64-12.06,7.92,0,4.75,3.7,7.13,13.9,9.68,12.23,3.08,19.1,7,19.1,17.43C278.48,94.56,272.49,101.33,258.15,101.33Z"/><path class="cls-1" d="M285.17,78.37c0-13.2,7.74-22.8,20.94-22.8s20.77,9.6,20.77,22.8-7.66,23-20.77,23S285.17,91.57,285.17,78.37Zm7.39,0c0,8.36,4.13,15.92,13.55,15.92s13.38-7.56,13.38-15.92-4.05-15.76-13.38-15.76S292.56,70,292.56,78.37Z"/><path class="cls-1" d="M346.15,56.45H357.5v7H346.15v37h-7.39v-37h-7.13v-7h7.13V51.61c0-8.18,4.57-13.72,14-13.72a18.22,18.22,0,0,1,5.1.7v6.95a25.28,25.28,0,0,0-4.75-.44c-4.66,0-7,2.73-7,6.69Z"/><path class="cls-1" d="M383.11,93.33a24.26,24.26,0,0,0,4.75-.62V100a17.86,17.86,0,0,1-5.1.71c-9.42,0-14-5.55-14-13.73V63.49h-7.12v-7h7.12V47.13h7.4v9.32h11.7v7h-11.7V86.81C376.16,90.69,378.44,93.33,383.11,93.33Z"/><path class="cls-1" d="M439.08,100.45l-7.57-21.29-4.05-13.55-4,13.55-7.57,21.29h-9.68L390,56.45h8.36L411,93.77l12.85-37.32h7.22l12.85,37.32,12.67-37.32H465l-16.19,44Z"/><path class="cls-1" d="M499.53,92.53c-2.81,5.81-8.09,8.8-14.87,8.8-11.7,0-17.6-9.94-17.6-22.88,0-12.4,6.16-22.88,18.48-22.88,6.43,0,11.35,2.91,14,8.63V56.45h7.57v44h-7.57Zm-12.85,1.76c6.78,0,12.85-4.31,12.85-14.08V76.69c0-9.76-5.54-14.08-12-14.08-8.53,0-12.93,5.64-12.93,15.84C474.63,89,478.85,94.29,486.68,94.29Z"/><path class="cls-1" d="M525.93,100.45h-7.39v-44h7.39V64.2c2.55-5.19,7-8.89,15.58-8.36v7.39c-9.68-1-15.58,1.94-15.58,11.26Z"/><path class="cls-1" d="M568.17,101.33c-16.45,0-23.67-9.5-23.67-23,0-13.29,7.39-22.8,20.77-22.8,13.55,0,19,9.42,19,22.8V81.8H552.16c1.05,7.48,5.89,12.32,16.28,12.32a38.92,38.92,0,0,0,13.37-2.38v7C578.2,100.63,572.66,101.33,568.17,101.33Zm-16.1-26h24.55c-.44-8.19-4.14-12.85-11.7-12.85C556.91,62.44,552.86,67.63,552.07,75.29Z"/><path class="cls-2" d="M73,69.41l-32.6-32.6-3.16-3.16h0L12.69,58.19h0L1.48,69.41a3,3,0,0,0,0,4.24L23.9,96.07l13.33,13.34L61.77,84.87l.39-.38L73,73.65A3,3,0,0,0,73,69.41ZM37.23,82.74,26,71.53l11.2-11.2,11.21,11.2Z"/><path class="cls-3" d="M37.23,60.33a18.85,18.85,0,0,1-.07-26.59L12.65,58.24,26,71.58,37.24,60.34Z"/><path class="cls-4" d="M48.47,71.5,37.23,82.74a18.85,18.85,0,0,1,0,26.67h0L61.81,84.84Z"/></svg>